<svg width="24" height="24" viewBox="0 0 24 24" fill="none" xmlns="http://www.w3.org/2000/svg">
<path d="M12.015 2.32512C12.0936 2.73182 12.4869 2.99785 12.8936 2.91931C13.3003 2.84077 13.5664 2.44741 13.4878 2.04071L12.015 2.32512ZM12.536 1.65505L11.9103 2.06862L11.9103 2.06864L12.536 1.65505ZM12.1348 1.24994L12.5545 0.628343L12.5544 0.628333L12.1348 1.24994ZM11.6091 1.02934L11.7587 0.294418L11.7587 0.294403L11.6091 1.02934ZM11.0389 1.02688L11.1818 1.76314L11.1822 1.76308L11.0389 1.02688ZM2.43229 2.69736L2.28939 1.96109L2.28654 1.96165L2.43229 2.69736ZM1.50126 3.31594L0.879532 2.89647L0.879527 2.89648L1.50126 3.31594ZM1.27627 4.41086L0.539504 4.55116L0.54002 4.55381L1.27627 4.41086ZM3.78295 17.3208L4.51921 17.1779L4.5192 17.1778L3.78295 17.3208ZM4.39983 18.2534L4.81951 17.6318L4.8195 17.6318L4.39983 18.2534ZM5.49547 18.4768L5.63821 19.2131L5.63827 19.2131L5.49547 18.4768ZM6.44514 19.0566C6.85177 18.9777 7.11749 18.5842 7.03862 18.1775C6.95976 17.7709 6.56618 17.5052 6.15955 17.584L6.44514 19.0566ZM22.4654 7.22807L22.6139 6.49293L22.6139 6.49292L22.4654 7.22807ZM12.9257 5.30068L12.7772 6.03583L12.7772 6.03583L12.9257 5.30068ZM11.7736 6.0655L11.0385 5.91691L11.0385 5.91697L11.7736 6.0655ZM8.97831 19.9009L8.24316 19.7524L8.24316 19.7524L8.97831 19.9009ZM9.74312 21.053L9.89165 20.3179L9.89159 20.3179L9.74312 21.053ZM19.2827 22.9804L19.4313 22.2453L19.4312 22.2453L19.2827 22.9804ZM20.4348 22.2156L19.6997 22.0671L19.6996 22.0672L20.4348 22.2156ZM23.2302 8.38018L23.9653 8.52872L23.9654 8.52865L23.2302 8.38018ZM13.4878 2.04071C13.4327 1.75529 13.3218 1.48372 13.1616 1.24147L11.9103 2.06864C11.9618 2.14656 11.9974 2.23373 12.015 2.32512L13.4878 2.04071ZM13.1616 1.24148C13.0015 0.999166 12.7951 0.79083 12.5545 0.628343L11.7151 1.87153C11.7925 1.92378 11.8588 1.99075 11.9103 2.06862L13.1616 1.24148ZM12.5544 0.628333C12.3137 0.465793 12.0432 0.352344 11.7587 0.294418L11.4595 1.76426C11.5509 1.78288 11.6378 1.81936 11.7151 1.87154L12.5544 0.628333ZM11.7587 0.294403C11.474 0.236479 11.1808 0.235212 10.8957 0.290689L11.1822 1.76308C11.2738 1.74525 11.368 1.74565 11.4595 1.76428L11.7587 0.294403ZM10.896 0.290622L2.28939 1.96109L2.5752 3.43362L11.1818 1.76314L10.896 0.290622ZM2.28654 1.96165C1.71254 2.07538 1.20679 2.41141 0.879532 2.89647L2.12299 3.7354C2.22884 3.57851 2.39242 3.46983 2.57805 3.43306L2.28654 1.96165ZM0.879527 2.89648C0.552269 3.38155 0.430048 3.97634 0.539509 4.55116L2.01303 4.27056C1.97763 4.08464 2.01716 3.89228 2.123 3.73539L0.879527 2.89648ZM0.54002 4.55381L3.0467 17.4637L4.5192 17.1778L2.01252 4.2679L0.54002 4.55381ZM3.04669 17.4637C3.15843 18.0393 3.49422 18.5469 3.98016 18.875L4.8195 17.6318C4.66313 17.5263 4.55513 17.363 4.51921 17.1779L3.04669 17.4637ZM3.98015 18.875C4.46623 19.2032 5.06267 19.3247 5.63821 19.2131L5.35273 17.7405C5.16751 17.7764 4.97572 17.7373 4.81951 17.6318L3.98015 18.875ZM5.63827 19.2131L6.44514 19.0566L6.15955 17.584L5.35268 17.7405L5.63827 19.2131ZM22.6139 6.49292L13.0742 4.56554L12.7772 6.03583L22.3169 7.96322L22.6139 6.49292ZM13.0743 4.56554C12.1389 4.37655 11.2275 4.98165 11.0385 5.91691L12.5087 6.21409C12.5337 6.09066 12.6539 6.01092 12.7772 6.03583L13.0743 4.56554ZM11.0385 5.91697L8.24316 19.7524L9.71346 20.0494L12.5087 6.21403L11.0385 5.91697ZM8.24316 19.7524C8.0542 20.6878 8.6592 21.5993 9.59466 21.7882L9.89159 20.3179C9.76836 20.293 9.68852 20.1729 9.71346 20.0494L8.24316 19.7524ZM9.59459 21.7882L19.1342 23.7156L19.4312 22.2453L9.89165 20.3179L9.59459 21.7882ZM19.1341 23.7156C20.0695 23.9046 20.9811 23.2996 21.17 22.3641L19.6996 22.0672C19.6747 22.1905 19.5547 22.2702 19.4313 22.2453L19.1341 23.7156ZM21.17 22.3641L23.9653 8.52872L22.4951 8.23165L19.6997 22.0671L21.17 22.3641ZM23.9654 8.52865C24.1542 7.59337 23.5493 6.68193 22.6139 6.49293L22.3168 7.96321C22.4401 7.98812 22.52 8.10831 22.495 8.23172L23.9654 8.52865ZM3.99534 4.61655C4.20699 4.61655 4.37858 4.78814 4.37858 4.99979H2.87858C2.87858 5.61657 3.37856 6.11655 3.99534 6.11655V4.61655ZM4.37858 4.99979C4.37858 5.21145 4.20699 5.38303 3.99534 5.38303V3.88303C3.37856 3.88303 2.87858 4.38302 2.87858 4.99979H4.37858ZM3.99534 6.11655C4.61209 6.11655 5.1121 5.61658 5.1121 4.99979H3.6121C3.6121 4.78813 3.78369 4.61655 3.99534 4.61655V6.11655ZM5.1121 4.99979C5.1121 4.38301 4.61209 3.88303 3.99534 3.88303V5.38303C3.78369 5.38303 3.6121 5.21146 3.6121 4.99979H5.1121ZM13.9696 7.73777C14.1812 7.73777 14.3528 7.90934 14.3528 8.12101H12.8528C12.8528 8.73779 13.3528 9.23777 13.9696 9.23777V7.73777ZM14.3528 8.12101C14.3528 8.33267 14.1812 8.50425 13.9696 8.50425V7.00425C13.3528 7.00425 12.8528 7.50424 12.8528 8.12101H14.3528ZM13.9696 9.23777C14.5863 9.23777 15.0863 8.73779 15.0863 8.12101H13.5863C13.5863 7.90934 13.7579 7.73777 13.9696 7.73777V9.23777ZM15.0863 8.12101C15.0863 7.50424 14.5863 7.00425 13.9696 7.00425V8.50425C13.7579 8.50425 13.5863 8.33267 13.5863 8.12101H15.0863ZM18.2426 19.7821C18.4542 19.7821 18.6258 19.9537 18.6258 20.1654H17.1258C17.1258 20.7821 17.6258 21.2821 18.2426 21.2821V19.7821ZM18.6258 20.1654C18.6258 20.377 18.4542 20.5486 18.2426 20.5486V19.0486C17.6258 19.0486 17.1258 19.5486 17.1258 20.1654H18.6258ZM18.2426 21.2821C18.8593 21.2821 19.3593 20.7821 19.3593 20.1654H17.8593C17.8593 19.9537 18.0309 19.7821 18.2426 19.7821V21.2821ZM19.3593 20.1654C19.3593 19.5486 18.8593 19.0486 18.2426 19.0486V20.5486C18.0309 20.5486 17.8593 20.377 17.8593 20.1654H19.3593Z" fill="#DDC06A"/>
</svg>
