<svg width="27" height="24" viewBox="0 0 27 24" fill="none" xmlns="http://www.w3.org/2000/svg">
<path d="M5.73674 3.00021H2.43944C2.33937 2.99732 2.23981 3.01548 2.14721 3.05352C2.0546 3.09156 1.97103 3.14863 1.90189 3.22103C1.83275 3.29344 1.7796 3.37956 1.74587 3.47382C1.71215 3.56808 1.6986 3.66838 1.70612 3.76821C1.88078 5.60685 2.73811 10.1041 6.93939 9.99881M21.6752 3.00021H25.0645C25.1643 2.99768 25.2635 3.01612 25.3558 3.05434C25.448 3.09256 25.5312 3.14971 25.5999 3.2221C25.6686 3.29449 25.7214 3.3805 25.7548 3.47457C25.7883 3.56864 25.8015 3.66867 25.7939 3.76821C25.6179 5.62019 24.7499 10.1681 20.4712 9.99481M19.3059 23V21.3334C19.3026 21.1794 19.2508 21.0305 19.1579 20.9077C19.065 20.7849 18.9358 20.6945 18.7886 20.6494C17.7404 20.3183 16.8308 19.6505 16.2011 18.7495C15.5714 17.8485 15.2567 16.7649 15.306 15.6667C15.306 10.6148 21.5072 16.9267 21.7059 1.75356C21.6986 1.54796 21.6105 1.35354 21.4607 1.2125C21.3109 1.07147 21.1116 0.99519 20.9059 1.00024H6.50607C6.3004 0.99519 6.10104 1.07147 5.95127 1.2125C5.80149 1.35354 5.71338 1.54796 5.70607 1.75356C5.90341 16.9267 12.106 10.6148 12.106 15.6667C12.1563 16.7661 11.8418 17.8512 11.2115 18.7533C10.5812 19.6554 9.67032 20.3239 8.62071 20.6547C8.47474 20.6998 8.34658 20.7895 8.25426 20.9113C8.16194 21.033 8.11011 21.1806 8.10605 21.3334V23H19.3059Z" stroke="#999999" stroke-width="1.5" stroke-linecap="round" stroke-linejoin="round"/>
</svg>
